<svg xmlns="http://www.w3.org/2000/svg" xmlns:xlink="http://www.w3.org/1999/xlink" width="63" height="63" viewBox="0 0 63 63">
  <defs>
    <clipPath id="clip-path">
      <path id="Path_109341" data-name="Path 109341" d="M31.5,0A31.5,31.5,0,1,1,0,31.5,31.5,31.5,0,0,1,31.5,0Z" transform="translate(-3776 9462)" fill="#dfc07c"/>
    </clipPath>
  </defs>
  <g id="Mask_Group_20" data-name="Mask Group 20" transform="translate(3776 -9462)" clip-path="url(#clip-path)">
    <g id="Group_30914" data-name="Group 30914">
      <g id="Group_30913" data-name="Group 30913" transform="translate(0 422)">
        <g id="Group_30891" data-name="Group 30891" transform="translate(-4468 8660)">
          <g id="Group_30594" data-name="Group 30594" transform="translate(202.506 -48.414)">
            <line id="Line_1" data-name="Line 1" y2="30.722" transform="translate(520.199 865.5)" fill="none" stroke="#fff" stroke-linecap="round" stroke-width="2"/>
            <path id="Path_44592" data-name="Path 44592" d="M2921,691c4.118.791,7.705,9.232,7.705,9.232" transform="translate(-2408.506 197.182)" fill="none" stroke="#fff" stroke-linecap="round" stroke-width="2"/>
            <path id="Path_44593" data-name="Path 44593" d="M2928.7,691c-4.118.791-7.705,9.232-7.705,9.232" transform="translate(-2400.801 197.182)" fill="none" stroke="#fff" stroke-linecap="round" stroke-width="2"/>
          </g>
        </g>
        <g id="Group_30893" data-name="Group 30893" transform="translate(-4468 8602)">
          <g id="Group_30594-2" data-name="Group 30594" transform="translate(202.506 -48.414)">
            <line id="Line_1-2" data-name="Line 1" y2="30.722" transform="translate(520.199 865.5)" fill="none" stroke="#fff" stroke-linecap="round" stroke-width="2"/>
            <path id="Path_44592-2" data-name="Path 44592" d="M2921,691c4.118.791,7.705,9.232,7.705,9.232" transform="translate(-2408.506 197.182)" fill="none" stroke="#fff" stroke-linecap="round" stroke-width="2"/>
            <path id="Path_44593-2" data-name="Path 44593" d="M2928.7,691c-4.118.791-7.705,9.232-7.705,9.232" transform="translate(-2400.801 197.182)" fill="none" stroke="#fff" stroke-linecap="round" stroke-width="2"/>
          </g>
        </g>
        <g id="Group_30900" data-name="Group 30900" transform="translate(-4468 8394.172)">
          <g id="Group_30594-3" data-name="Group 30594" transform="translate(202.506 -48.414)">
            <line id="Line_1-3" data-name="Line 1" y2="30.722" transform="translate(520.199 865.5)" fill="none" stroke="#fff" stroke-linecap="round" stroke-width="2"/>
            <path id="Path_44592-3" data-name="Path 44592" d="M2921,691c4.118.791,7.705,9.232,7.705,9.232" transform="translate(-2408.506 197.182)" fill="none" stroke="#fff" stroke-linecap="round" stroke-width="2"/>
            <path id="Path_44593-3" data-name="Path 44593" d="M2928.7,691c-4.118.791-7.705,9.232-7.705,9.232" transform="translate(-2400.801 197.182)" fill="none" stroke="#fff" stroke-linecap="round" stroke-width="2"/>
          </g>
        </g>
        <g id="Group_30894" data-name="Group 30894" transform="translate(-4468 8550)">
          <g id="Group_30594-4" data-name="Group 30594" transform="translate(202.506 -48.414)">
            <line id="Line_1-4" data-name="Line 1" y2="30.722" transform="translate(520.199 865.5)" fill="none" stroke="#fff" stroke-linecap="round" stroke-width="2"/>
            <path id="Path_44592-4" data-name="Path 44592" d="M2921,691c4.118.791,7.705,9.232,7.705,9.232" transform="translate(-2408.506 197.182)" fill="none" stroke="#fff" stroke-linecap="round" stroke-width="2"/>
            <path id="Path_44593-4" data-name="Path 44593" d="M2928.7,691c-4.118.791-7.705,9.232-7.705,9.232" transform="translate(-2400.801 197.182)" fill="none" stroke="#fff" stroke-linecap="round" stroke-width="2"/>
          </g>
        </g>
        <g id="Group_30897" data-name="Group 30897" transform="translate(-4468 8342.172)">
          <g id="Group_30594-5" data-name="Group 30594" transform="translate(202.506 -48.414)">
            <line id="Line_1-5" data-name="Line 1" y2="30.722" transform="translate(520.199 865.5)" fill="none" stroke="#fff" stroke-linecap="round" stroke-width="2"/>
            <path id="Path_44592-5" data-name="Path 44592" d="M2921,691c4.118.791,7.705,9.232,7.705,9.232" transform="translate(-2408.506 197.182)" fill="none" stroke="#fff" stroke-linecap="round" stroke-width="2"/>
            <path id="Path_44593-5" data-name="Path 44593" d="M2928.7,691c-4.118.791-7.705,9.232-7.705,9.232" transform="translate(-2400.801 197.182)" fill="none" stroke="#fff" stroke-linecap="round" stroke-width="2"/>
          </g>
        </g>
        <g id="Group_30895" data-name="Group 30895" transform="translate(-4468 8498)">
          <g id="Group_30594-6" data-name="Group 30594" transform="translate(202.506 -48.414)">
            <line id="Line_1-6" data-name="Line 1" y2="30.722" transform="translate(520.199 865.5)" fill="none" stroke="#fff" stroke-linecap="round" stroke-width="2"/>
            <path id="Path_44592-6" data-name="Path 44592" d="M2921,691c4.118.791,7.705,9.232,7.705,9.232" transform="translate(-2408.506 197.182)" fill="none" stroke="#fff" stroke-linecap="round" stroke-width="2"/>
            <path id="Path_44593-6" data-name="Path 44593" d="M2928.7,691c-4.118.791-7.705,9.232-7.705,9.232" transform="translate(-2400.801 197.182)" fill="none" stroke="#fff" stroke-linecap="round" stroke-width="2"/>
          </g>
        </g>
        <g id="Group_30898" data-name="Group 30898" transform="translate(-4468 8290.172)">
          <g id="Group_30594-7" data-name="Group 30594" transform="translate(202.506 -48.414)">
            <line id="Line_1-7" data-name="Line 1" y2="30.722" transform="translate(520.199 865.5)" fill="none" stroke="#fff" stroke-linecap="round" stroke-width="2"/>
            <path id="Path_44592-7" data-name="Path 44592" d="M2921,691c4.118.791,7.705,9.232,7.705,9.232" transform="translate(-2408.506 197.182)" fill="none" stroke="#fff" stroke-linecap="round" stroke-width="2"/>
            <path id="Path_44593-7" data-name="Path 44593" d="M2928.7,691c-4.118.791-7.705,9.232-7.705,9.232" transform="translate(-2400.801 197.182)" fill="none" stroke="#fff" stroke-linecap="round" stroke-width="2"/>
          </g>
        </g>
        <g id="Group_30896" data-name="Group 30896" transform="translate(-4468 8446.086)">
          <g id="Group_30594-8" data-name="Group 30594" transform="translate(202.506 -48.414)">
            <line id="Line_1-8" data-name="Line 1" y2="30.722" transform="translate(520.199 865.5)" fill="none" stroke="#fff" stroke-linecap="round" stroke-width="2"/>
            <path id="Path_44592-8" data-name="Path 44592" d="M2921,691c4.118.791,7.705,9.232,7.705,9.232" transform="translate(-2408.506 197.182)" fill="none" stroke="#fff" stroke-linecap="round" stroke-width="2"/>
            <path id="Path_44593-8" data-name="Path 44593" d="M2928.7,691c-4.118.791-7.705,9.232-7.705,9.232" transform="translate(-2400.801 197.182)" fill="none" stroke="#fff" stroke-linecap="round" stroke-width="2"/>
          </g>
        </g>
        <g id="Group_30899" data-name="Group 30899" transform="translate(-4468 8238.258)">
          <g id="Group_30594-9" data-name="Group 30594" transform="translate(202.506 -48.414)">
            <line id="Line_1-9" data-name="Line 1" y2="30.722" transform="translate(520.199 865.5)" fill="none" stroke="#fff" stroke-linecap="round" stroke-width="2"/>
            <path id="Path_44592-9" data-name="Path 44592" d="M2921,691c4.118.791,7.705,9.232,7.705,9.232" transform="translate(-2408.506 197.182)" fill="none" stroke="#fff" stroke-linecap="round" stroke-width="2"/>
            <path id="Path_44593-9" data-name="Path 44593" d="M2928.7,691c-4.118.791-7.705,9.232-7.705,9.232" transform="translate(-2400.801 197.182)" fill="none" stroke="#fff" stroke-linecap="round" stroke-width="2"/>
          </g>
        </g>
      </g>
      <g id="Group_30892" data-name="Group 30892" transform="translate(-4341 8649)">
        <g id="Path_93107" data-name="Path 93107" transform="translate(565 813)" fill="none">
          <path d="M31.5,0A31.5,31.5,0,1,1,0,31.5,31.5,31.5,0,0,1,31.5,0Z" stroke="none"/>
          <path d="M 31.5 2 C 27.51663970947266 2 23.65349960327148 2.779701232910156 20.01787948608398 4.317440032958984 C 16.50527954101562 5.803138732910156 13.3502197265625 7.93048095703125 10.64035034179688 10.64035034179688 C 7.93048095703125 13.3502197265625 5.803138732910156 16.50527954101562 4.317440032958984 20.01787948608398 C 2.779701232910156 23.65349960327148 2 27.51663970947266 2 31.5 C 2 35.48336029052734 2.779701232910156 39.34650039672852 4.317440032958984 42.98212051391602 C 5.803138732910156 46.49472045898438 7.93048095703125 49.6497802734375 10.64035034179688 52.35964965820312 C 13.3502197265625 55.06951904296875 16.50527954101562 57.19686126708984 20.01787948608398 58.68255996704102 C 23.65349960327148 60.22029876708984 27.51663970947266 61 31.5 61 C 35.48336029052734 61 39.34650039672852 60.22029876708984 42.98212051391602 58.68255996704102 C 46.49472045898438 57.19686126708984 49.6497802734375 55.06951904296875 52.35964965820312 52.35964965820312 C 55.06951904296875 49.6497802734375 57.19686126708984 46.49472045898438 58.68255996704102 42.98212051391602 C 60.22029876708984 39.34650039672852 61 35.48336029052734 61 31.5 C 61 27.51663970947266 60.22029876708984 23.65349960327148 58.68255996704102 20.01787948608398 C 57.19686126708984 16.50527954101562 55.06951904296875 13.3502197265625 52.35964965820312 10.64035034179688 C 49.6497802734375 7.93048095703125 46.49472045898438 5.803138732910156 42.98212051391602 4.317440032958984 C 39.34650039672852 2.779701232910156 35.48336029052734 2 31.5 2 M 31.5 0 C 48.89696884155273 0 63 14.10303115844727 63 31.5 C 63 48.89696884155273 48.89696884155273 63 31.5 63 C 14.10303115844727 63 0 48.89696884155273 0 31.5 C 0 14.10303115844727 14.10303115844727 0 31.5 0 Z" stroke="none" fill="#fff"/>
        </g>
      </g>
    </g>
  </g>
</svg>
